<?xml version="1.0" encoding="UTF-8"?>
<!DOCTYPE svg PUBLIC "-//W3C//DTD SVG 1.1//EN" "http://www.w3.org/Graphics/SVG/1.1/DTD/svg11.dtd">
<!-- Creator: CorelDRAW 2017 -->
<svg xmlns="http://www.w3.org/2000/svg" xml:space="preserve" width="200px" height="200px" version="1.1" style="shape-rendering:geometricPrecision; text-rendering:geometricPrecision; image-rendering:optimizeQuality; fill-rule:evenodd; clip-rule:evenodd"
viewBox="0 0 500 500"
 xmlns:xlink="http://www.w3.org/1999/xlink">
 <defs>
  <style type="text/css">
   <![CDATA[
    .fil2 {fill:url(#id0)}
    .fil1 {fill:url(#id1)}
    .fil0 {fill:url(#id2)}
   ]]>
  </style>
  <linearGradient id="id0" gradientUnits="userSpaceOnUse" x1="309.72" y1="206.92" x2="188.28" y2="280.75">
   <stop offset="0" style="stop-opacity:1; stop-color:#54E2F5"/>
   <stop offset="1" style="stop-opacity:1; stop-color:#17A7DC"/>
  </linearGradient>
  <linearGradient id="id1" gradientUnits="userSpaceOnUse" x1="313.98" y1="349.24" x2="16.52" y2="137.76">
   <stop offset="0" style="stop-opacity:1; stop-color:#64D2FA"/>
   <stop offset="1" style="stop-opacity:1; stop-color:#15A6DB"/>
  </linearGradient>
  <linearGradient id="id2" gradientUnits="userSpaceOnUse" x1="191.5" y1="470.14" x2="306.51" y2="17.53">
   <stop offset="0" style="stop-opacity:1; stop-color:#79EDFA"/>
   <stop offset="1" style="stop-opacity:1; stop-color:#00B0C4"/>
  </linearGradient>
 </defs>
 <g id="Слой_x0020_1">
  <metadata id="CorelCorpID_0Corel-Layer"/>
  <path class="fil0" d="M249 143.34c55.51,0 100.5,44.99 100.5,100.5 0,55.5 -44.99,100.5 -100.5,100.5 -55.5,0 -100.5,-45 -100.5,-100.5 0,-44.5 0,-89 0,-133.5 0,-55.08 -44.92,-100 -100,-100 -11,0 -22.02,0 -33,0 0,80 0,165.96 0,233.5 0,128.95 104.54,233.5 233.5,233.5 128.96,0 233.5,-104.55 233.5,-233.5 0,-128.96 -104.54,-233.5 -233.5,-233.5 -100.5,0 -100.5,133 0,133z"/>
  <path class="fil1" d="M148 244c0,-44.5 1,-89.5 1,-134 0,-55.08 -45.42,-100 -100.5,-100 -11,0 -22.52,0 -33.5,0 0,80 1,166.46 1,234 0,128.96 104.04,233 233,233 23.11,0 45.42,-3.04 66.5,-9.29 -96.56,-28.64 -167.5,-117.86 -167.5,-223.71z"/>
  <circle class="fil2" cx="249" cy="243.83" r="71.06"/>
 </g>
</svg>
