<?xml version="1.0" encoding="UTF-8" standalone="no"?>
<!DOCTYPE svg PUBLIC "-//W3C//DTD SVG 1.1//EN" "http://www.w3.org/Graphics/SVG/1.1/DTD/svg11.dtd">
<svg version="1.1" xmlns="http://www.w3.org/2000/svg" xmlns:xlink="http://www.w3.org/1999/xlink"
    preserveAspectRatio="xMidYMid meet" viewBox="0 0 610 200" width="610" height="200">
    <defs>
        <path
            d="M139.8 97.54C139.8 119.74 121.8 137.74 99.6 137.74C77.4 137.74 59.4 119.74 59.4 97.54C59.4 79.74 59.4 61.94 59.4 44.14C59.4 22.1 41.43 4.14 19.4 4.14C15 4.14 10.59 4.14 6.2 4.14C6.2 36.14 6.2 70.52 6.2 97.54C6.2 149.12 48.02 190.94 99.6 190.94C151.18 190.94 193 149.12 193 97.54C193 45.95 151.18 4.14 99.6 4.14C59.4 4.14 59.4 57.34 99.6 57.34C121.8 57.34 139.8 75.33 139.8 97.54Z"
            id="a1z01HqvQS"></path>
        <linearGradient id="gradienta6wG765Tp" gradientUnits="userSpaceOnUse" x1="76.6" y1="188.06" x2="122.6"
            y2="7.01">
            <stop style="stop-color: #79edfa;stop-opacity: 1" offset="0%"></stop>
            <stop style="stop-color: #00b0c4;stop-opacity: 1" offset="100%"></stop>
        </linearGradient>
        <path
            d="M59.6 44C59.6 21.97 41.43 4 19.4 4C15 4 10.39 4 6 4C6 36 6.4 70.58 6.4 97.6C6.4 149.18 48.02 190.8 99.6 190.8C108.84 190.8 117.77 189.58 126.2 187.08C87.58 175.63 59.2 139.94 59.2 97.6C59.2 79.8 59.6 61.8 59.6 44Z"
            id="agaCKO8xF"></path>
        <linearGradient id="gradientg6gxFVNlPT" gradientUnits="userSpaceOnUse" x1="125.59" y1="139.7" x2="6.61"
            y2="55.1">
            <stop style="stop-color: #64d2fa;stop-opacity: 1" offset="0%"></stop>
            <stop style="stop-color: #15a6db;stop-opacity: 1" offset="100%"></stop>
        </linearGradient>
        <path
            d="M99.6 69.11C83.9 69.11 71.18 81.83 71.18 97.53C71.18 113.23 83.9 125.96 99.6 125.96C115.3 125.96 128.02 113.23 128.02 97.53C128.02 81.83 115.3 69.11 99.6 69.11Z"
            id="d23Kx1TwJg"></path>
        <linearGradient id="gradienta5Xad3LukO" gradientUnits="userSpaceOnUse" x1="123.89" y1="82.77" x2="75.31"
            y2="112.3">
            <stop style="stop-color: #54e2f5;stop-opacity: 1" offset="0%"></stop>
            <stop style="stop-color: #17a7dc;stop-opacity: 1" offset="100%"></stop>
        </linearGradient>

        <path id="d" transform="translate(205, 20)" d="M81.97 83.61C81.97 70.33 78.23 60.18 70.75 53.14C63.27 46.11 52.66 42.60 38.91 42.60L9.26 42.60L9.26 128.26L36.97 128.26C51.23 128.26 62.29 124.39 70.17 116.66C78.04 108.93 81.97 97.91 81.97 83.61ZM57.95 84.43C57.95 92.83 56.31 99.07 53.03 103.15C49.75 107.24 44.59 109.28 37.56 109.28L32.40 109.28L32.40 61.29L39.14 61.29C45.47 61.29 50.19 63.18 53.29 66.97C56.40 70.76 57.95 76.58 57.95 84.43Z"/>
        <path id="e" transform="translate(205, 20)" d="M148.18 128.26L148.18 109.39L120.47 109.39L120.47 93.22L146.13 93.22L146.13 74.65L120.47 74.65L120.47 61.17L148.18 61.17L148.18 42.60L97.32 42.60L97.32 128.26Z"/>
        <path id="w" transform="translate(205, 20)" d="M255.70 128.26L276.80 42.60L254.47 42.60L244.98 85.66C242.71 96.37 241.33 103.89 240.82 108.22C240.39 104.86 239.53 99.79 238.24 92.99C236.95 86.19 235.68 80.20 234.43 75L227.11 42.60L205.66 42.60L198.11 75C196.97 79.49 195.75 85.16 194.44 91.99C193.13 98.83 192.23 104.24 191.72 108.22C190.94 102.60 189.49 95.04 187.38 85.55L178.07 42.60L155.74 42.60L176.95 128.26L204.32 128.26C209.32 105.80 212.16 92.99 212.84 89.82C213.53 86.66 214.22 83.19 214.92 79.42C215.63 75.65 216.13 72.50 216.45 69.96C216.84 73.09 217.45 76.97 218.29 81.62C219.13 86.27 219.75 89.37 220.14 90.94L228.34 128.26Z"/>

        <path id="js1" transform="translate(480, 40)" d="M4.20 98.78C4.20 101.74 5.13 104.04 6.98 105.66C8.84 107.29 11.38 108.11 14.60 108.11C17.72 108.11 20.17 107.28 21.95 105.64C23.72 104.00 24.61 101.71 24.61 98.78C24.61 95.78 23.75 93.47 22.02 91.85C20.30 90.22 17.82 89.40 14.60 89.40C11.21 89.40 8.63 90.22 6.86 91.85C5.09 93.47 4.20 95.78 4.20 98.78Z"/>
        <path id="js2" transform="translate(480, 40)" d="M34.08 130.91C40.63 130.91 45.68 129.17 49.24 125.71C52.81 122.24 54.59 117.46 54.59 111.38L54.59 51.56L35.50 51.56L35.50 107.37C35.50 112.91 33.56 115.67 29.69 115.67C27.86 115.67 25.91 115.38 23.83 114.79L23.83 129.69C25.03 130.01 26.65 130.30 28.69 130.54C30.72 130.79 32.52 130.91 34.08 130.91Z"/>
        <path id="js3" transform="translate(480, 40)" d="M35.01 37.79C35.01 43.39 38.38 46.19 45.12 46.19C51.92 46.19 55.32 43.39 55.32 37.79C55.32 34.99 54.51 32.88 52.88 31.45C51.25 30.01 48.67 29.30 45.12 29.30C41.57 29.30 39.00 30.00 37.40 31.40C35.81 32.80 35.01 34.93 35.01 37.79Z"/>
        <path id="js4" transform="translate(480, 40)" d="M110.64 89.89C110.64 86.93 110.20 84.42 109.30 82.35C108.41 80.28 107.01 78.48 105.10 76.95C103.20 75.42 100.31 73.86 96.44 72.27C91.23 70.21 88.08 68.86 86.99 68.19C85.90 67.52 85.35 66.72 85.35 65.77C85.35 64.24 86.91 63.48 90.04 63.48C91.83 63.48 94.14 63.88 96.97 64.67C99.80 65.47 102.49 66.44 105.03 67.58L110.21 55.27C106.75 53.74 103.43 52.58 100.22 51.78C97.01 50.98 93.59 50.59 89.94 50.59C82.68 50.59 77.07 52.02 73.10 54.88C69.12 57.75 67.14 61.75 67.14 66.89C67.14 70.96 68.15 74.32 70.17 76.98C72.18 79.63 75.73 82.00 80.81 84.08C86.38 86.30 89.74 87.78 90.89 88.55C92.05 89.31 92.63 90.19 92.63 91.16C92.63 93.05 90.56 93.99 86.43 93.99C83.66 93.99 80.51 93.57 76.98 92.72C73.45 91.88 70.20 90.80 67.24 89.50L67.24 104.79C70.39 105.96 73.49 106.76 76.51 107.20C79.54 107.64 83.11 107.86 87.21 107.86C94.76 107.86 100.55 106.35 104.59 103.32C108.63 100.29 110.64 95.82 110.64 89.89Z"/>

    </defs>
    <g>
        <use xlink:href="#d" opacity="1" fill="#2c3e50"></use>
        <use xlink:href="#e" opacity="1" fill="#2c3e50"></use>
        <use xlink:href="#w" opacity="1" fill="#2c3e50"></use>
    </g>
    <g>
        <use xlink:href="#js1" opacity="1" fill="#37a5da"></use>
        <use xlink:href="#js2" opacity="1" fill="#37a5da"></use>
        <use xlink:href="#js3" opacity="1" fill="#37a5da"></use>
        <use xlink:href="#js4" opacity="1" fill="#37a5da"></use>
    </g>
    <g>
        <use xlink:href="#a1z01HqvQS" opacity="1" fill="url(#gradienta6wG765Tp)"></use>
    </g>
    <g>
        <use xlink:href="#agaCKO8xF" opacity="1" fill="url(#gradientg6gxFVNlPT)"></use>
    </g>
    <g>
        <use xlink:href="#d23Kx1TwJg" opacity="1" fill="url(#gradienta5Xad3LukO)"></use>
    </g>
    <g>
        <use xlink:href="#a9L1P6AOg7" opacity="1" fill="#2b3e50" fill-opacity="1"></use>
    </g>
    <g>
        <use xlink:href="#c3PT8TWKlt" opacity="1" fill="#37a5da" fill-opacity="1"></use>
    </g>
</svg>